<svg xmlns="http://www.w3.org/2000/svg" width="142" height="27" viewBox="0 0 142 27" version="1.1"><path d="M 1 7.441 C 1 8.234, 1.450 9.160, 2 9.500 L 3 10.118 3 14 L 3 17.882 2 18.500 C 1.450 18.840, 1 19.766, 1 20.559 L 1 22 5.500 22 L 10 22 10 20.500 L 10 19 9 19 L 8 19 8 14 L 8 9 9 9 L 10 9 10 7.500 L 10 6 5.500 6 L 1 6 1 7.441 M 12.136 14 L 11.864 22 14.432 22 L 17 22 16.996 19.250 L 16.993 16.500 14.942 13.137 C 13.815 11.288, 13.103 9.563, 13.361 9.305 C 13.620 9.047, 15.331 11.568, 17.165 14.906 C 18.999 18.245, 20.725 20.979, 21 20.982 C 21.275 20.985, 22.288 19.604, 23.250 17.913 L 25 14.838 24.978 11.669 L 24.956 8.500 23.063 10.963 L 21.171 13.425 19.400 9.713 L 17.630 6 15.019 6 L 12.409 6 12.136 14 M 26 14 L 26 22 28.500 22 L 31 22 31 14 L 31 6 28.500 6 L 26 6 26 14 M 39.404 9.186 C 40.150 11.009, 41.070 13.512, 41.448 14.750 L 42.135 17 40.567 17 L 39 17 39 18.500 L 39 20 41.500 20 L 44 20 44 21 L 44 22 46.500 22 C 47.875 22, 48.998 21.887, 48.996 21.750 C 48.994 21.613, 47.681 18.125, 46.078 14 L 43.163 6.500 40.606 6.186 L 38.049 5.872 39.404 9.186 M 51.200 7.200 L 50 8.400 50 14 L 50 19.600 51.200 20.800 L 52.400 22 55.700 22 L 59 22 59 20.500 L 59 19 57 19 L 55 19 55 12.500 L 55 6 53.700 6 C 52.985 6, 51.860 6.540, 51.200 7.200 M 56 7.500 L 56 9 58 9 L 60 9 60 10 L 60 11 61.833 11 C 62.842 11, 63.968 10.699, 64.336 10.331 L 65.004 9.662 63.347 7.831 L 61.690 6 58.845 6 L 56 6 56 7.500 M 67.500 14 L 67.500 22 71.250 22 L 75 22 75 20.500 L 75 19 74 19 L 73 19 73 14 L 73 9 74 9 L 75 9 75 7.500 L 75 6 71.250 6 L 67.500 6 67.500 14 M 77 7.500 L 77 9 83.500 9 L 90 9 90 7.500 L 90 6 83.500 6 L 77 6 77 7.500 M 92 14 L 92 22 94.500 22 L 97 22 97 18.500 L 97 15 99.500 15 L 102 15 102 13.500 L 102 12 99.500 12 L 97 12 97 9 L 97 6 94.500 6 L 92 6 92 14 M 98 7.383 L 98 8.767 100.250 9.370 C 101.487 9.701, 103.287 9.979, 104.250 9.986 L 106 10 106 8 L 106 6 102 6 L 98 6 98 7.383 M 109.655 7.829 L 108 9.657 108 14.174 L 108 18.690 109.829 20.345 C 110.835 21.255, 111.960 22, 112.329 22 L 113 22 113 14 L 113 6 112.155 6 C 111.690 6, 110.565 6.823, 109.655 7.829 M 114 7.500 L 114 9 115.500 9 L 117 9 117 10.500 L 117 12 120 12 L 123 12 123 11.223 C 123 10.795, 122.299 9.445, 121.443 8.223 L 119.887 6 116.943 6 L 114 6 114 7.500 M 125 14 L 125 22 127.500 22 L 130 22 130 14 L 130 6 127.500 6 L 125 6 125 14 M 135 9 L 135 12 133 12 L 131 12 131 13.500 L 131 15 133 15 L 135 15 135 18.500 L 135 22 137.500 22 L 140 22 140 14 L 140 6 137.500 6 L 135 6 135 9 M 37.081 8.131 C 37.037 8.478, 35.879 11.740, 34.509 15.381 L 32.017 22 34.415 22 L 36.812 22 38.282 17.686 L 39.752 13.372 38.457 10.436 C 37.745 8.821, 37.126 7.784, 37.081 8.131 M 81 16 L 81 22 83.500 22 L 86 22 86 16 L 86 10 83.500 10 L 81 10 81 16 M -0 14 L -0 15.333 0.667 14.667 L 1.333 14 0.667 13.333 L 0 12.667 -0 14 M 58 14.500 L 58 16 59 16 L 60 16 60 19 L 60 22 62.500 22 L 65 22 65 17.500 L 65 13 61.500 13 L 58 13 58 14.500 M 101 18 L 101 19 99.500 19 L 98 19 98 20.500 L 98 22 102 22 L 106 22 106 19.500 L 106 17 103.500 17 L 101 17 101 18 M 117 18 L 117 19 115.500 19 L 114 19 114 20.563 L 114 22.127 117.137 21.813 L 120.273 21.500 121.758 19.250 L 123.244 17 120.122 17 L 117 17 117 18" stroke="none" fill="#403fee" fill-rule="evenodd"/><path d="M 9.750 2.324 C 8.238 3.562, 7 4.896, 7 5.288 C 7 5.679, 7.675 6, 8.500 6 L 10 6 10 7.500 L 10 9 9 9 L 8 9 8 14 L 8 19 9 19 L 10 19 10 20.500 L 10 22 7.500 22 L 5 22 5 22.878 C 5 23.360, 5.744 24.373, 6.654 25.128 L 8.307 26.500 69.404 26.620 L 130.500 26.741 132.357 25.778 L 134.215 24.815 135.307 25.907 L 136.400 27 139.200 27 L 142 27 142 13.500 L 142 0 77.250 0.036 L 12.500 0.072 9.750 2.324 M 12.136 14 L 11.864 22 14.432 22 L 17 22 16.996 19.250 L 16.993 16.500 14.942 13.137 C 13.815 11.288, 13.103 9.563, 13.361 9.305 C 13.620 9.047, 15.331 11.568, 17.165 14.906 C 18.999 18.245, 20.725 20.979, 21 20.982 C 21.275 20.985, 22.288 19.604, 23.250 17.913 L 25 14.838 24.978 11.669 L 24.956 8.500 23.063 10.963 L 21.171 13.425 19.400 9.713 L 17.630 6 15.019 6 L 12.409 6 12.136 14 M 26 14 L 26 22 28.500 22 L 31 22 31 14 L 31 6 28.500 6 L 26 6 26 14 M 39.404 9.186 C 40.150 11.009, 41.070 13.512, 41.448 14.750 L 42.135 17 40.567 17 L 39 17 39 18.500 L 39 20 41.500 20 L 44 20 44 21 L 44 22 46.500 22 C 47.875 22, 48.998 21.887, 48.996 21.750 C 48.994 21.613, 47.681 18.125, 46.078 14 L 43.163 6.500 40.606 6.186 L 38.049 5.872 39.404 9.186 M 51.200 7.200 L 50 8.400 50 14 L 50 19.600 51.200 20.800 L 52.400 22 55.700 22 L 59 22 59 20.500 L 59 19 57 19 L 55 19 55 12.500 L 55 6 53.700 6 C 52.985 6, 51.860 6.540, 51.200 7.200 M 56 7.500 L 56 9 58 9 L 60 9 60 10 L 60 11 61.833 11 C 62.842 11, 63.968 10.699, 64.336 10.331 L 65.004 9.662 63.347 7.831 L 61.690 6 58.845 6 L 56 6 56 7.500 M 67.500 14 L 67.500 22 71.250 22 L 75 22 75 20.500 L 75 19 74 19 L 73 19 73 14 L 73 9 74 9 L 75 9 75 7.500 L 75 6 71.250 6 L 67.500 6 67.500 14 M 77 7.500 L 77 9 83.500 9 L 90 9 90 7.500 L 90 6 83.500 6 L 77 6 77 7.500 M 92 14 L 92 22 94.500 22 L 97 22 97 18.500 L 97 15 99.500 15 L 102 15 102 13.500 L 102 12 99.500 12 L 97 12 97 9 L 97 6 94.500 6 L 92 6 92 14 M 98 7.383 L 98 8.767 100.250 9.370 C 101.487 9.701, 103.287 9.979, 104.250 9.986 L 106 10 106 8 L 106 6 102 6 L 98 6 98 7.383 M 109.655 7.829 L 108 9.657 108 14.174 L 108 18.690 109.829 20.345 C 110.835 21.255, 111.960 22, 112.329 22 L 113 22 113 14 L 113 6 112.155 6 C 111.690 6, 110.565 6.823, 109.655 7.829 M 114 7.500 L 114 9 115.500 9 L 117 9 117 10.500 L 117 12 120 12 L 123 12 123 11.223 C 123 10.795, 122.299 9.445, 121.443 8.223 L 119.887 6 116.943 6 L 114 6 114 7.500 M 125 14 L 125 22 127.500 22 L 130 22 130 14 L 130 6 127.500 6 L 125 6 125 14 M 135 9 L 135 12 133 12 L 131 12 131 13.500 L 131 15 133 15 L 135 15 135 18.500 L 135 22 137.500 22 L 140 22 140 14 L 140 6 137.500 6 L 135 6 135 9 M 37.081 8.131 C 37.037 8.478, 35.879 11.740, 34.509 15.381 L 32.017 22 34.415 22 L 36.812 22 38.282 17.686 L 39.752 13.372 38.457 10.436 C 37.745 8.821, 37.126 7.784, 37.081 8.131 M 81 16 L 81 22 83.500 22 L 86 22 86 16 L 86 10 83.500 10 L 81 10 81 16 M 58 14.500 L 58 16 59 16 L 60 16 60 19 L 60 22 62.500 22 L 65 22 65 17.500 L 65 13 61.500 13 L 58 13 58 14.500 M 101 18 L 101 19 99.500 19 L 98 19 98 20.500 L 98 22 102 22 L 106 22 106 19.500 L 106 17 103.500 17 L 101 17 101 18 M 117 18 L 117 19 115.500 19 L 114 19 114 20.563 L 114 22.127 117.137 21.813 L 120.273 21.500 121.758 19.250 L 123.244 17 120.122 17 L 117 17 117 18" stroke="none" fill="#f1f1fb" fill-rule="evenodd"/></svg>